Coordinates
version=1
nRows=14
nColumns=24
inDegrees=yes

Units are S.I. units (second, meters, Newtons, ...)
Angles are in degrees.

endheader
time	pelvis_tilt	pelvis_list	pelvis_rotation	pelvis_tx	pelvis_ty	pelvis_tz	hip_flexion_r	hip_adduction_r	hip_rotation_r	knee_angle_r	ankle_angle_r	subtalar_angle_r	mtp_angle_r	hip_flexion_l	hip_adduction_l	hip_rotation_l	knee_angle_l	ankle_angle_l	subtalar_angle_l	mtp_angle_l	lumbar_extension	lumbar_bending	lumbar_rotation
      1.71500000	     -6.42522612	     -2.02582433	      4.68540095	      0.24762378	      1.28769363	     -0.87871548	      6.42402770	      7.45269598	     10.95684970	     -1.60521786	     -2.61386125	     -8.99096280	     -0.66985655	     24.94034433	      3.16004440	     -1.31398385	    -56.26087073	     -6.39152638	    -29.17003317	      7.47083157	     -0.31295084	      4.46531838	     -4.35613374
      1.72000000	     -6.28194041	     -1.99962703	      4.57387157	      0.25312189	      1.28776374	     -0.87879170	      5.61858030	      7.43931230	     11.04514929	     -1.17108748	     -2.43685782	     -8.89316850	     -0.60616788	     25.41109504	      3.33884358	     -1.09954048	    -55.59396659	     -5.62431437	    -28.61612194	      7.59956935	     -0.47081410	      4.48936675	     -4.15471800
      1.72500000	     -6.12685951	     -1.97863871	      4.45083425	      0.25856147	      1.28777345	     -0.87885012	      4.81864745	      7.43445807	     11.14980918	     -0.76219034	     -2.25258915	     -8.81833105	     -0.54045897	     25.85331070	      3.50128257	     -0.88887819	    -54.86327256	     -4.89558574	    -28.05138652	      7.71793985	     -0.65113347	      4.52030029	     -3.95150086
      1.73000000	     -5.98565731	     -1.95977845	      4.30599079	      0.26393960	      1.28772533	     -0.87888533	      4.06023999	      7.43273728	     11.29829143	     -0.39285391	     -2.06621866	     -8.76496900	     -0.47537304	     26.29131981	      3.65004543	     -0.68730109	    -54.06251373	     -4.22081582	    -27.50446657	      7.81490887	     -0.82686307	      4.55313651	     -3.73146820
      1.73500000	     -5.84285006	     -1.94212287	      4.13793008	      0.26923877	      1.28763374	     -0.87888830	      3.32657793	      7.43500609	     11.48892323	     -0.06002716	     -1.88142251	     -8.74229741	     -0.40881862	     26.70781812	      3.77969584	     -0.50149248	    -53.19104668	     -3.60463047	    -26.97918053	      7.89451164	     -1.01805836	      4.58684728	     -3.49708804
      1.74000000	     -5.70790128	     -1.92877581	      3.94289684	      0.27447408	      1.28748351	     -0.87885573	      2.62905354	      7.44370017	     11.73159111	      0.23161810	     -1.69041410	     -8.74788877	     -0.33908715	     27.11162414	      3.88235100	     -0.33960747	    -52.25156752	     -3.04174272	    -26.49629931	      7.95473171	     -1.21064987	      4.62473211	     -3.23889231
      1.74500000	     -5.59373495	     -1.94663387	      3.73234221	      0.27962166	      1.28722934	     -0.87880270	      1.97584294	      7.48568652	     12.01627653	      0.50526775	     -1.53387839	     -8.86294588	     -0.21091491	     27.54461244	      3.92835635	     -0.18820794	    -51.29543220	     -2.43347604	    -25.88344404	      8.01855507	     -1.39355822	      4.69925405	     -2.97915187
      1.75000000	     -5.43998986	     -1.94548398	      3.45981810	      0.28463947	      1.28699615	     -0.87867655	      1.32836765	      7.51435653	     12.39744884	      0.69868280	     -1.31884615	     -8.94980233	     -0.13434169	     27.89579488	      3.95434861	     -0.09575281	    -50.23663917	     -2.04140698	    -25.52091725	      8.03500310	     -1.64609180	      4.75299590	     -2.63133636
      1.75500000	     -5.32364138	     -1.95468792	      3.15463046	      0.28955346	      1.28668505	     -0.87850817	      0.75409265	      7.55228376	     12.88114233	      0.85449189	     -1.19078776	     -9.20259214	     -0.00870198	     28.27201170	      3.93937457	     -0.02703594	    -49.12644476	     -1.55937867	    -25.02887545	      8.04834068	     -1.87811534	      4.82375628	     -2.29166282
      1.76000000	     -5.18853300	     -1.95759845	      2.79262800	      0.29433015	      1.28637480	     -0.87828219	      0.22955065	      7.59090835	     13.39404112	      0.88795826	     -0.92810093	     -9.29064438	      0.04534861	     28.59809120	      3.89264354	     -0.01171124	    -47.92983338	     -1.31774530	    -24.81749781	      8.04003895	     -2.15953738	      4.88572133	     -1.87522213
      1.76500000	     -5.08675442	     -1.99468635	      2.37764437	      0.29899702	      1.28596197	     -0.87795197	     -0.26482669	      7.66301679	     14.14333099	      0.96538774	     -0.86877233	     -9.83742395	      0.18583623	     28.96146407	      3.74829147	     -0.05469701	    -46.72886350	     -0.91306029	    -24.32709568	      8.02629028	     -2.42365905	      4.97776922	     -1.42278763
      1.77000000	     -4.95685563	     -2.02036785	      1.93127320	      0.30355760	      1.28557833	     -0.87762414	     -0.70298431	      7.72976999	     14.77813943	      0.87685579	     -0.57745323	     -9.95126526	      0.24161447	     29.25267745	      3.59726281	     -0.12236519	    -45.42484269	     -0.77833505	    -24.17853508	      8.00388580	     -2.73926763	      5.06087756	     -0.92908837
      1.77500000	     -4.87649957	     -2.08227130	      1.41085470	      0.30798720	      1.28507290	     -0.87716777	     -1.10225406	      7.82932605	     15.76183740	      0.85221360	     -0.56017974	    -10.70374651	      0.37676453	     29.59959180	      3.33343411	     -0.27402388	    -44.12670901	     -0.48792058	    -23.78588053	      7.96000239	     -3.02468822	      5.17693834	     -0.36686348
      1.78000000	     -4.79374493	     -2.14465412	      0.86360468	      0.31234873	      1.28457658	     -0.87670060	     -1.45432865	      7.93074947	     16.68962089	      0.73325898	     -0.40753567	    -11.19480342	      0.51487041	     29.90559512	      3.04465910	     -0.44857515	    -42.75083146	     -0.36765531	    -23.57590290	      7.90511971	     -3.32771624	      5.28846090	      0.23335514
